<svg width="1024" height="1024" viewBox="0 0 1024 1024" fill="none" xmlns="http://www.w3.org/2000/svg">
<rect width="1024" height="1024" rx="500" fill="white"/>
<path d="M343.855 250.225C386.693 264.962 397.893 323.913 407.915 323.913C418.133 323.913 449.18 322.341 451.931 304.459C455.664 280.093 422.652 214.658 349.947 204.047C277.242 193.24 142.442 285.202 142.442 293.652C142.442 302.298 131.831 323.52 168.184 304.263C204.536 285.202 301.018 235.487 343.855 250.225Z" fill="black"/>
<path d="M881.482 293.652C881.482 285.202 746.879 193.24 673.977 203.851C601.272 214.462 568.26 280.093 571.993 304.263C574.744 322.145 612.08 325.682 622.298 325.682C632.516 325.682 642.144 272.233 684.785 257.496C727.622 242.758 819.388 285.006 855.741 304.263C892.29 323.717 881.482 302.298 881.482 293.652Z" fill="black"/>
<path d="M842.967 500.174C842.967 500.174 804.453 689.994 681.247 681.741C592.821 675.65 576.708 631.83 568.259 627.114C571.599 625.345 575.726 623.577 580.442 621.808C617.187 609.232 624.851 583.294 606.183 566.002C606.183 566.002 613.061 604.123 586.73 608.053C560.399 611.983 552.735 622.005 537.408 632.223C531.513 636.153 525.421 637.528 520.116 637.725H503.806C498.501 637.528 492.213 636.153 486.514 632.223C470.991 622.005 463.327 612.18 437.193 608.053C410.861 603.927 417.739 566.002 417.739 566.002C399.071 583.098 406.538 609.036 443.481 621.808C450.751 624.363 456.057 627.114 460.183 629.865C450.555 640.869 429.332 676.436 350.339 681.741C227.133 690.191 188.619 500.174 188.619 500.174C166.021 504.497 190.584 691.566 297.48 729.491C333.637 742.263 377.063 741.477 417.935 730.473C441.319 742.656 471.187 753.267 503.02 753.267C540.749 753.267 586.337 742.656 621.903 732.438C660.418 741.281 700.307 741.477 734.106 729.491C841.002 691.566 865.565 504.497 842.967 500.174ZM511.863 729.687C491.82 728.901 469.222 725.168 447.607 720.452C452.913 718.29 458.218 716.129 463.327 713.771C491.623 700.016 501.645 663.073 512.059 657.571C514.221 657.768 516.775 657.964 519.919 657.768C530.137 663.663 540.159 700.212 568.455 713.771C577.298 718.094 586.533 721.631 595.769 724.775C566.097 728.115 534.854 730.67 511.863 729.687Z" fill="black"/>
<path d="M266.238 353.191C234.602 360.265 222.615 354.567 222.615 354.567C210.432 352.405 276.456 405.461 315.953 408.998C355.45 412.535 398.091 402.906 398.091 402.906C398.091 402.906 408.898 392.885 371.366 371.859C333.835 350.833 297.875 346.314 266.238 353.191Z" fill="black"/>
<path d="M721.333 412.535C760.83 408.998 826.854 356.139 814.868 358.104C814.868 358.104 802.881 363.803 771.244 356.729C739.608 349.655 703.452 354.371 665.92 375.2C628.388 396.226 639.196 406.051 639.196 406.051C639.196 406.051 681.836 416.072 721.333 412.535Z" fill="black"/>
<path d="M554.898 772.918H512.454H494.965H452.521C452.521 772.918 474.136 787.852 476.887 807.109C479.638 826.366 455.665 837.567 462.149 871.168C468.634 904.77 478.262 948 503.808 948C524.244 948 538.981 904.966 545.269 871.168C551.754 837.567 527.584 826.366 530.335 807.109C533.283 787.655 554.898 772.918 554.898 772.918Z" fill="black"/>
<path d="M243.275 552.075C244.374 522.393 260.498 480.619 300.257 476.588C340.2 472.557 376.294 488.864 378.127 537.601C379.959 586.338 338.184 614.188 300.257 608.141C262.513 602.095 242.176 583.04 243.275 552.075Z" fill="#FF9797"/>
<path d="M764.726 552.075C763.626 522.393 747.503 480.619 707.743 476.588C667.801 472.557 631.706 488.864 629.874 537.601C628.042 586.338 669.816 614.188 707.743 608.141C745.487 602.095 765.825 583.04 764.726 552.075Z" fill="#FF9797"/>
</svg>
