<svg width="9" height="13" viewBox="0 0 9 13" fill="none" xmlns="http://www.w3.org/2000/svg">
<path d="M5.81013 4.64286C5.53956 5.01754 5.24051 5.37594 5.0269 5.78321C5.06962 5.86466 5.11234 5.84837 5.14082 5.84837C5.22627 5.84837 5.29747 5.86466 5.38291 5.86466C6.46519 5.86466 7.54747 5.96241 8.62975 5.94612C8.75791 5.94612 8.91456 5.91353 9 6.07644C8.90032 6.20677 8.74367 6.20677 8.62975 6.20677C8.07437 6.22306 7.53323 6.20677 6.97785 6.23935C6.2943 6.27193 5.61076 6.3208 4.94146 6.41855C4.89873 6.5 4.94146 6.54887 4.96994 6.58145C5.22627 6.93985 5.46835 7.29825 5.78165 7.59148C5.90981 7.68922 6.00949 7.81955 6.05221 7.99875C6.06646 8.0802 6.02373 8.11278 5.96677 8.09649C5.88133 8.06391 5.81013 7.99875 5.73892 7.93358C5.45411 7.68922 5.18354 7.42857 4.92722 7.15163C4.85601 7.07018 4.77057 6.90727 4.6424 6.98872C4.52848 7.03759 4.58544 7.2005 4.58544 7.31454C4.5712 8.11278 4.51424 8.91103 4.44304 9.70927C4.44304 9.75815 4.4288 9.80702 4.4288 9.85589C4.4288 10.7845 4.32911 11.713 4.37184 12.6579C4.37184 12.7231 4.37184 12.7719 4.37184 12.8371C4.37184 12.9023 4.37184 13 4.28639 13C4.21519 13 4.18671 12.9185 4.17247 12.8534C4.14399 12.7068 4.11551 12.5764 4.12975 12.4298C4.14399 11.6153 4.12975 10.7845 4.18671 9.96992C4.22943 9.17168 4.20095 8.38972 4.12975 7.60777C4.10127 7.42857 4.11551 7.24937 4.10127 7.07018C4.10127 6.98872 4.11551 6.89098 4.03006 6.80952C3.60285 7.13534 3.24684 7.59148 2.81962 7.93358C2.76266 7.98246 2.69146 8.04762 2.62025 8.11278C2.52057 8.11278 2.53481 8.06391 2.56329 7.98246C2.57753 7.96617 2.60601 7.94987 2.60601 7.91729C2.64873 7.901 2.63449 7.83584 2.66297 7.80326C2.99051 7.29825 3.36076 6.8584 3.68829 6.38596C3.64557 6.27193 3.57437 6.28822 3.5174 6.28822C3.20411 6.28822 2.89082 6.27193 2.59177 6.27193C1.80854 6.27193 1.02532 6.20677 0.256329 6.09273C0.170886 6.09273 0.0712025 6.07644 0 6.01128C0.0996835 5.89724 0.213608 5.92982 0.327532 5.92982C0.954114 5.92982 1.56646 5.92982 2.19304 5.92982C2.63449 5.92982 3.06171 5.92982 3.48892 5.88095C3.74525 5.84837 3.80221 5.73434 3.64557 5.48997C3.40348 5.11529 3.10443 4.78947 2.83386 4.44737C2.74842 4.34962 2.64873 4.26817 2.63449 4.13784C2.71994 4.05639 2.7769 4.12155 2.83386 4.17043C3.17563 4.44737 3.50316 4.78947 3.84494 5.099C3.93038 5.18045 4.01582 5.2782 4.12975 5.32707C4.20095 5.2782 4.17247 5.19674 4.17247 5.13158C4.25791 3.6817 4.20095 2.23183 4.22943 0.781955C4.22943 0.586466 4.25791 0.407268 4.27215 0.211779C4.27215 0.114035 4.30063 0.0488722 4.40032 0C4.51424 0.195489 4.51424 0.423559 4.51424 0.635338C4.52848 1.2381 4.59968 1.84085 4.5712 2.4599C4.55696 2.802 4.52848 3.1604 4.54272 3.5188C4.5712 4.13784 4.61392 4.77318 4.6424 5.42481C4.84177 5.32707 4.99842 5.18045 5.14082 5.03383C5.34019 4.82205 5.5538 4.61028 5.75316 4.3985C5.78165 4.38221 5.79589 4.36591 5.81013 4.33333C5.82437 4.31704 5.85285 4.30075 5.86709 4.26817C5.98101 4.2193 6.00949 4.26817 5.98101 4.3985C5.95253 4.41479 5.93829 4.44737 5.92405 4.46366C5.86709 4.51253 5.85285 4.59398 5.81013 4.64286Z" fill="#F2CB0C"/>
</svg>
